<svg width="50" height="50" viewBox="0 0 50 50" fill="none" xmlns="http://www.w3.org/2000/svg">
<path d="M18.9062 7C18.9062 7 12.5391 7.4375 8.375 10.7812C8.35547 10.7891 8.33203 10.8008 8.3125 10.8125C7.58984 11.4805 7.04688 12.5156 6.375 14C5.70313 15.4844 4.99219 17.3945 4.34375 19.5312C3.05078 23.8086 2 29.0586 2 34C1.99609 34.1758 2.03906 34.3477 2.125 34.5C3.58594 37.0664 6.27344 38.6172 8.78125 39.5938C11.2891 40.5703 13.6055 40.9609 14.7812 41C15.1133 41.0117 15.4297 40.8594 15.625 40.5938L18.0625 37.2188C20.0273 37.6836 22.332 38 25 38C27.668 38 29.9727 37.6836 31.9375 37.2188L34.375 40.5938C34.5703 40.8594 34.8867 41.0117 35.2187 41C36.3945 40.9609 38.7109 40.5703 41.2187 39.5938C43.7266 38.6172 46.4141 37.0664 47.875 34.5C47.9609 34.3477 48.0039 34.1758 48 34C48 29.0586 46.9492 23.8086 45.6562 19.5312C45.0078 17.3945 44.2969 15.4844 43.625 14C42.9531 12.5156 42.4102 11.4805 41.6875 10.8125C41.668 10.8008 41.6445 10.7891 41.625 10.7812C37.4609 7.4375 31.0937 7 31.0937 7C31.0195 6.99219 30.9492 6.99219 30.875 7C30.5273 7.04687 30.2344 7.27344 30.0937 7.59375C30.0937 7.59375 29.7539 8.33984 29.5312 9.40625C27.582 9.09375 25.9414 9 25 9C24.0586 9 22.418 9.09375 20.4687 9.40625C20.2461 8.33984 19.9062 7.59375 19.9062 7.59375C19.7344 7.20312 19.332 6.96484 18.9062 7ZM18.2812 9.15625C18.3555 9.35937 18.4062 9.55078 18.4687 9.78125C16.2148 10.3047 13.7461 11.1602 11.4375 12.5937C11.0742 12.7461 10.8359 13.0977 10.8242 13.4922C10.8164 13.8828 11.0391 14.2461 11.3906 14.418C11.7461 14.5859 12.168 14.5352 12.4687 14.2812C17.1016 11.4102 22.9961 11 25 11C27.0039 11 32.8984 11.4102 37.5312 14.2812C37.832 14.5352 38.2539 14.5859 38.6094 14.418C38.9609 14.2461 39.1836 13.8828 39.1758 13.4922C39.1641 13.0977 38.9258 12.7461 38.5625 12.5937C36.2539 11.1602 33.7852 10.3047 31.5312 9.78125C31.5937 9.55078 31.6445 9.35937 31.7187 9.15625C32.8594 9.29687 37.293 9.89453 40.3125 12.2812C40.5078 12.4609 41.1875 13.4609 41.8125 14.8437C42.4375 16.2266 43.0937 18.0273 43.7187 20.0938C44.9375 24.125 45.9219 29.0977 45.9687 33.6562C44.832 35.4961 42.6992 36.8633 40.5 37.7188C38.5 38.4961 36.6328 38.8438 35.6562 38.9375L33.9687 36.6562C34.8281 36.3789 35.6016 36.0781 36.2812 35.7812C38.8047 34.6719 40.1562 33.5 40.1562 33.5C40.5703 33.1289 40.6055 32.4922 40.2344 32.0781C39.8633 31.6641 39.2266 31.6289 38.8125 32C38.8125 32 37.7656 32.957 35.4687 33.9688C34.625 34.3398 33.6016 34.707 32.4375 35.0312C32.168 35 31.8984 35.0781 31.6875 35.25C29.8242 35.7031 27.6094 36 25 36C22.3711 36 20.1523 35.6758 18.2812 35.2188C18.0703 35.0781 17.8125 35.0195 17.5625 35.0625C16.3945 34.7383 15.3789 34.3398 14.5312 33.9688C12.2344 32.957 11.1875 32 11.1875 32C10.9609 31.7891 10.6484 31.6992 10.3437 31.75C9.95703 31.8086 9.63672 32.0859 9.53125 32.4648C9.42188 32.8398 9.54688 33.2461 9.84375 33.5C9.84375 33.5 11.1953 34.6719 13.7187 35.7812C14.3984 36.0781 15.1719 36.3789 16.0312 36.6562L14.3437 38.9375C13.3672 38.8438 11.5 38.4961 9.5 37.7188C7.30078 36.8633 5.16797 35.4961 4.03125 33.6562C4.07812 29.0977 5.0625 24.125 6.28125 20.0938C6.90625 18.0273 7.5625 16.2266 8.1875 14.8437C8.8125 13.4609 9.49219 12.4609 9.6875 12.2812C12.707 9.89453 17.1406 9.29687 18.2812 9.15625ZM18.5 21C15.9492 21 14 23.3164 14 26C14 28.6836 15.9492 31 18.5 31C21.0508 31 23 28.6836 23 26C23 23.3164 21.0508 21 18.5 21ZM31.5 21C28.9492 21 27 23.3164 27 26C27 28.6836 28.9492 31 31.5 31C34.0508 31 36 28.6836 36 26C36 23.3164 34.0508 21 31.5 21ZM18.5 23C19.8164 23 21 24.2656 21 26C21 27.7344 19.8164 29 18.5 29C17.1836 29 16 27.7344 16 26C16 24.2656 17.1836 23 18.5 23ZM31.5 23C32.8164 23 34 24.2656 34 26C34 27.7344 32.8164 29 31.5 29C30.1836 29 29 27.7344 29 26C29 24.2656 30.1836 23 31.5 23Z" fill="black"/>
</svg>
