<svg width="50" height="50" viewBox="0 0 50 50" fill="none" xmlns="http://www.w3.org/2000/svg">
<path fill-rule="evenodd" clip-rule="evenodd" d="M43.7484 12.4135C43.7681 13.6771 43.6111 15.2635 43.4704 16.4181C43.4156 16.8685 43.3411 17.2432 43.2611 17.5511C45.0473 20.8542 45.8334 24.8279 45.8334 29.1667C45.8334 34.3092 43.3598 38.5437 39.5079 41.4315C35.6915 44.2927 30.5429 45.8333 25 45.8333C19.4571 45.8333 14.3085 44.2927 10.4921 41.4315C6.64017 38.5437 4.16669 34.3092 4.16669 29.1667C4.16669 24.8279 4.95277 20.8542 6.73902 17.5511C6.659 17.2432 6.5845 16.8684 6.52964 16.4181C6.38904 15.2635 6.23196 13.6771 6.25171 12.4135C6.27396 10.9897 6.46006 9.56604 6.66644 8.15373C6.76187 7.50058 6.91342 6.88639 7.62258 6.49827C8.347 6.10179 9.1099 6.2496 9.86248 6.46271C12.401 7.18152 14.781 8.18975 17.0167 9.40181C19.374 8.69348 22.0381 8.33333 25 8.33333C27.9619 8.33333 30.6261 8.69348 32.9834 9.40181C35.219 8.18975 37.599 7.18152 40.1375 6.46271C40.8902 6.2496 41.6531 6.10179 42.3775 6.49827C43.0867 6.88639 43.2381 7.50058 43.3336 8.15373C43.54 9.56604 43.7261 10.9897 43.7484 12.4135ZM41.6667 29.1667C41.6667 25.6517 40.8588 20.8333 36.4584 20.8333C34.4746 20.8333 32.5988 21.3546 30.7238 21.8758C28.8504 22.3962 26.9781 22.9167 25 22.9167C23.0219 22.9167 21.1496 22.3962 19.2763 21.8758C17.4013 21.3546 15.5254 20.8333 13.5417 20.8333C9.15375 20.8333 8.33335 25.666 8.33335 29.1667C8.33335 32.8408 10.0572 35.8979 12.9914 38.0977C15.9612 40.3242 20.1876 41.6667 25 41.6667C29.8123 41.6667 34.0388 40.324 37.0086 38.0977C39.9429 35.8979 41.6667 32.8408 41.6667 29.1667ZM20.8334 30.2083C20.8334 33.0848 19.4342 35.4167 17.7084 35.4167C15.9825 35.4167 14.5834 33.0848 14.5834 30.2083C14.5834 27.3319 15.9825 25 17.7084 25C19.4342 25 20.8334 27.3319 20.8334 30.2083ZM32.2917 35.4167C34.0175 35.4167 35.4167 33.0848 35.4167 30.2083C35.4167 27.3319 34.0175 25 32.2917 25C30.5659 25 29.1667 27.3319 29.1667 30.2083C29.1667 33.0848 30.5659 35.4167 32.2917 35.4167Z" fill="black"/>
</svg>
