<svg width="56" height="50" viewBox="0 0 56 50" fill="none" xmlns="http://www.w3.org/2000/svg">
<g clip-path="url(#clip0_23_135)">
<path d="M22.4345 14.9491C25.8836 16.0766 30.0248 13.7063 31.6855 9.65521C33.3451 5.60404 31.8949 1.40697 28.4464 0.280116C24.9966 -0.84586 20.8558 1.52377 19.1953 5.57484C17.5355 9.62601 18.9857 13.8231 22.4345 14.9491Z" fill="#FC532E"/>
<path d="M9.32923 21.4101C12.9372 21.1308 15.5284 17.4702 15.1183 13.2314C14.7074 8.99397 11.4494 5.78479 7.8414 6.06253C4.23378 6.3427 1.64268 10.0039 2.05317 14.2421C2.4642 18.4795 5.72171 21.6886 9.32923 21.4101Z" fill="#FC532E"/>
<path d="M37.4277 21.2664C40.5943 22.9283 45.1443 21.2593 47.5915 17.5405C50.0386 13.8192 49.4553 9.45863 46.2883 7.79691C43.1217 6.13666 38.5708 7.80638 36.124 11.5252C33.6771 15.2458 34.2612 19.6063 37.4277 21.2664Z" fill="#FC532E"/>
<path d="M54.3877 25.6751C52.3346 23.0119 47.4894 22.806 43.5646 25.2167C39.6389 27.6289 38.1219 31.7423 40.1744 34.4062C42.2269 37.0693 47.0726 37.2754 50.9975 34.8638C54.9219 32.4524 56.4398 28.339 54.3877 25.6751Z" fill="#FC532E"/>
<path d="M33.3059 26.1777C32.9143 23.7585 31.2533 21.5521 28.5985 20.4332C25.9442 19.315 22.9804 19.5731 20.6406 20.8403C18.0543 22.2417 16.3999 24.0723 14.1724 24.8725C11.9452 25.6726 5.70674 23.2896 1.82261 29.5872C-0.920622 34.0352 1.59763 39.6583 6.74033 41.825C10.6492 43.4719 13.7428 43.288 16.014 44.2443C18.2849 45.2007 20.0926 47.4504 24.0011 49.0971C29.1437 51.2639 35.6058 49.4254 37.7075 44.7067C40.6831 38.0264 34.6562 35.2417 33.9316 33.1979C33.2077 31.1545 33.7389 28.8503 33.3059 26.1777Z" fill="#FC532E"/>
</g>
<defs>
<clipPath id="clip0_23_135">
<rect width="56" height="50" fill="white"/>
</clipPath>
</defs>
</svg>
