<svg width="50" height="50" viewBox="0 0 50 50" fill="none" xmlns="http://www.w3.org/2000/svg">
<path d="M25 2C12.3093 2 2 12.3093 2 25C2 37.6907 12.3093 48 25 48C37.6907 48 48 37.6907 48 25C48 12.3093 37.6907 2 25 2ZM25 4C36.6098 4 46 13.3902 46 25C46 36.6098 36.6098 46 25 46C13.3902 46 4 36.6098 4 25C4 13.3902 13.3902 4 25 4ZM34.0879 14.0352C33.4039 14.0352 32.6353 14.1936 31.7363 14.5176C30.3403 15.0206 13.9207 21.9922 12.0527 22.7852C10.9847 23.2392 8.99609 24.0837 8.99609 26.0977C8.99609 27.4327 9.77836 28.3875 11.3184 28.9375C12.1464 29.2325 14.1129 29.8286 15.2539 30.1426C15.7379 30.2756 16.2522 30.3438 16.7812 30.3438C17.8162 30.3438 18.8578 30.0859 19.6738 29.6309C19.6668 29.7989 19.6714 29.9687 19.6914 30.1387C19.8144 31.1887 20.4619 32.1763 21.4219 32.7812C22.0499 33.1772 27.1793 36.6142 27.9453 37.1602C29.0213 37.9292 30.2108 38.3359 31.3828 38.3359C33.6228 38.3359 34.3743 36.0231 34.7363 34.9121C35.2613 33.2991 37.2272 20.1821 37.4492 17.8691C37.6002 16.2841 36.9396 14.979 35.6816 14.377C35.2106 14.15 34.6729 14.0352 34.0879 14.0352ZM34.0879 16.0352C34.3629 16.0352 34.6084 16.0806 34.8164 16.1816C35.2894 16.4086 35.53 16.9147 35.457 17.6797C35.215 20.2027 33.2539 33.009 32.8359 34.293C32.4779 35.391 32.1008 36.3359 31.3828 36.3359C30.6648 36.3359 29.8804 36.0843 29.1074 35.5312C28.3344 34.9793 23.2013 31.5369 22.4883 31.0879C21.8633 30.6939 21.2018 29.7117 22.1328 28.7617C22.8998 27.9797 28.7178 22.3329 29.2148 21.8359C29.5848 21.4649 29.4118 21.0176 29.0488 21.0176C28.9238 21.0176 28.7741 21.0703 28.6191 21.1973C28.0111 21.6943 19.5348 27.3663 18.8008 27.8223C18.3148 28.1243 17.5623 28.3418 16.7812 28.3418C16.4482 28.3418 16.1111 28.3019 15.7871 28.2129C14.6591 27.9019 12.7502 27.3227 11.9922 27.0527C11.2632 26.7927 10.998 26.5437 10.998 26.0977C10.998 25.4637 11.8929 25.026 12.8359 24.625C13.8319 24.202 31.0661 16.8834 32.4141 16.3984C33.0381 16.1724 33.6089 16.0352 34.0879 16.0352Z" fill="black"/>
</svg>
