<svg width="50" height="50" viewBox="0 0 50 50" fill="none" xmlns="http://www.w3.org/2000/svg">
<path d="M18.906 7C18.906 7 12.5388 7.4375 8.37476 10.7812C8.35523 10.7891 8.33179 10.8008 8.31226 10.8125C7.5896 11.4805 7.04663 12.5156 6.37476 14C5.70288 15.4844 4.99194 17.3945 4.34351 19.5312C3.05054 23.8086 1.99976 29.0586 1.99976 34C1.99585 34.1758 2.03882 34.3477 2.12476 34.5C3.58569 37.0664 6.27319 38.6172 8.78101 39.5938C11.2888 40.5703 13.6052 40.9609 14.781 41C15.113 41.0117 15.4294 40.8594 15.6248 40.5938L18.0623 37.2188C20.0271 37.6836 22.3318 38 24.9998 38C27.6677 38 29.9724 37.6836 31.9373 37.2188L34.3748 40.5938C34.5701 40.8594 34.8865 41.0117 35.2185 41C36.3943 40.9609 38.7107 40.5703 41.2185 39.5938C43.7263 38.6172 46.4138 37.0664 47.8748 34.5C47.9607 34.3477 48.0037 34.1758 47.9998 34C47.9998 29.0586 46.949 23.8086 45.656 19.5312C45.0076 17.3945 44.2966 15.4844 43.6248 14C42.9529 12.5156 42.4099 11.4805 41.6873 10.8125C41.6677 10.8008 41.6443 10.7891 41.6248 10.7812C37.4607 7.4375 31.0935 7 31.0935 7C31.0193 6.99219 30.949 6.99219 30.8748 7C30.5271 7.04687 30.2341 7.27344 30.0935 7.59375C30.0935 7.59375 29.7537 8.33984 29.531 9.40625C27.5818 9.09375 25.9412 9 24.9998 9C24.0583 9 22.4177 9.09375 20.4685 9.40625C20.2458 8.33984 19.906 7.59375 19.906 7.59375C19.7341 7.20312 19.3318 6.96484 18.906 7ZM18.281 9.15625C18.3552 9.35937 18.406 9.55078 18.4685 9.78125C16.2146 10.3047 13.7458 11.1602 11.4373 12.5937C11.074 12.7461 10.8357 13.0977 10.824 13.4922C10.8162 13.8828 11.0388 14.2461 11.3904 14.418C11.7458 14.5859 12.1677 14.5352 12.4685 14.2812C17.1013 11.4102 22.9958 11 24.9998 11C27.0037 11 32.8982 11.4102 37.531 14.2812C37.8318 14.5352 38.2537 14.5859 38.6091 14.418C38.9607 14.2461 39.1833 13.8828 39.1755 13.4922C39.1638 13.0977 38.9255 12.7461 38.5623 12.5937C36.2537 11.1602 33.7849 10.3047 31.531 9.78125C31.5935 9.55078 31.6443 9.35937 31.7185 9.15625C32.8591 9.29687 37.2927 9.89453 40.3123 12.2812C40.5076 12.4609 41.1873 13.4609 41.8123 14.8437C42.4373 16.2266 43.0935 18.0273 43.7185 20.0938C44.9373 24.125 45.9216 29.0977 45.9685 33.6562C44.8318 35.4961 42.699 36.8633 40.4998 37.7188C38.4998 38.4961 36.6326 38.8438 35.656 38.9375L33.9685 36.6562C34.8279 36.3789 35.6013 36.0781 36.281 35.7812C38.8044 34.6719 40.156 33.5 40.156 33.5C40.5701 33.1289 40.6052 32.4922 40.2341 32.0781C39.863 31.6641 39.2263 31.6289 38.8123 32C38.8123 32 37.7654 32.957 35.4685 33.9688C34.6248 34.3398 33.6013 34.707 32.4373 35.0312C32.1677 35 31.8982 35.0781 31.6873 35.25C29.824 35.7031 27.6091 36 24.9998 36C22.3708 36 20.1521 35.6758 18.281 35.2188C18.0701 35.0781 17.8123 35.0195 17.5623 35.0625C16.3943 34.7383 15.3787 34.3398 14.531 33.9688C12.2341 32.957 11.1873 32 11.1873 32C10.9607 31.7891 10.6482 31.6992 10.3435 31.75C9.95679 31.8086 9.63648 32.0859 9.53101 32.4648C9.42163 32.8398 9.54663 33.2461 9.84351 33.5C9.84351 33.5 11.1951 34.6719 13.7185 35.7812C14.3982 36.0781 15.1716 36.3789 16.031 36.6562L14.3435 38.9375C13.3669 38.8438 11.4998 38.4961 9.49976 37.7188C7.30054 36.8633 5.16772 35.4961 4.03101 33.6562C4.07788 29.0977 5.06226 24.125 6.28101 20.0938C6.90601 18.0273 7.56226 16.2266 8.18726 14.8437C8.81226 13.4609 9.49194 12.4609 9.68726 12.2812C12.7068 9.89453 17.1404 9.29687 18.281 9.15625ZM18.4998 21C15.949 21 13.9998 23.3164 13.9998 26C13.9998 28.6836 15.949 31 18.4998 31C21.0505 31 22.9998 28.6836 22.9998 26C22.9998 23.3164 21.0505 21 18.4998 21ZM31.4998 21C28.949 21 26.9998 23.3164 26.9998 26C26.9998 28.6836 28.949 31 31.4998 31C34.0505 31 35.9998 28.6836 35.9998 26C35.9998 23.3164 34.0505 21 31.4998 21ZM18.4998 23C19.8162 23 20.9998 24.2656 20.9998 26C20.9998 27.7344 19.8162 29 18.4998 29C17.1833 29 15.9998 27.7344 15.9998 26C15.9998 24.2656 17.1833 23 18.4998 23ZM31.4998 23C32.8162 23 33.9998 24.2656 33.9998 26C33.9998 27.7344 32.8162 29 31.4998 29C30.1833 29 28.9998 27.7344 28.9998 26C28.9998 24.2656 30.1833 23 31.4998 23Z" fill="black"/>
</svg>
