<svg width="42" height="40" viewBox="0 0 42 40" fill="none" xmlns="http://www.w3.org/2000/svg">
<path fill-rule="evenodd" clip-rule="evenodd" d="M39.5817 6.16346C39.6015 7.42708 39.4444 9.01352 39.3037 10.1681C39.249 10.6185 39.1744 10.9932 39.0944 11.3011C40.8806 14.6042 41.6667 18.5779 41.6667 22.9167C41.6667 28.0592 39.1931 32.2937 35.3413 35.1815C31.5248 38.0427 26.3762 39.5833 20.8333 39.5833C15.2904 39.5833 10.1419 38.0427 6.32542 35.1815C2.47348 32.2937 0 28.0592 0 22.9167C0 18.5779 0.786083 14.6042 2.57233 11.3011C2.49231 10.9932 2.41781 10.6184 2.36296 10.1681C2.22235 9.01352 2.06527 7.42708 2.08502 6.16346C2.10727 4.73971 2.29337 3.31604 2.49975 1.90373C2.59519 1.25058 2.74673 0.636393 3.4559 0.248268C4.18031 -0.148211 4.94321 -0.00039828 5.69579 0.212706C8.23431 0.931518 10.6143 1.93975 12.8501 3.15181C15.2073 2.44348 17.8715 2.08333 20.8333 2.08333C23.7952 2.08333 26.4594 2.44348 28.8167 3.15181C31.0523 1.93975 33.4323 0.931518 35.9708 0.212706C36.7235 -0.00039828 37.4865 -0.148211 38.2108 0.248268C38.92 0.636393 39.0715 1.25058 39.1669 1.90373C39.3733 3.31604 39.5594 4.73971 39.5817 6.16346ZM37.5 22.9167C37.5 19.4017 36.6921 14.5833 32.2917 14.5833C30.3079 14.5833 28.4321 15.1046 26.5571 15.6258C24.6838 16.1462 22.8115 16.6667 20.8333 16.6667C18.8552 16.6667 16.9829 16.1462 15.1096 15.6258C13.2346 15.1046 11.3587 14.5833 9.375 14.5833C4.98706 14.5833 4.16667 19.416 4.16667 22.9167C4.16667 26.5908 5.89052 29.6479 8.82475 31.8477C11.7945 34.0742 16.0209 35.4167 20.8333 35.4167C25.6456 35.4167 29.8721 34.074 32.8419 31.8477C35.7762 29.6479 37.5 26.5908 37.5 22.9167ZM16.6667 23.9583C16.6667 26.8348 15.2676 29.1667 13.5417 29.1667C11.8158 29.1667 10.4167 26.8348 10.4167 23.9583C10.4167 21.0819 11.8158 18.75 13.5417 18.75C15.2676 18.75 16.6667 21.0819 16.6667 23.9583ZM28.125 29.1667C29.8508 29.1667 31.25 26.8348 31.25 23.9583C31.25 21.0819 29.8508 18.75 28.125 18.75C26.3992 18.75 25 21.0819 25 23.9583C25 26.8348 26.3992 29.1667 28.125 29.1667Z" fill="black"/>
</svg>
