<svg width="55" height="50" viewBox="0 0 55 50" fill="none" xmlns="http://www.w3.org/2000/svg">
<path d="M21.7365 14.9491C25.1855 16.0766 29.3267 13.7063 30.9874 9.65521C32.647 5.60404 31.1968 1.40697 27.7484 0.280116C24.2986 -0.84586 20.1577 1.52377 18.4972 5.57484C16.8374 9.62601 18.2876 13.8231 21.7365 14.9491Z" fill="#9B9C9D"/>
<path d="M8.63132 21.4101C12.2393 21.1308 14.8305 17.4702 14.4204 13.2314C14.0095 8.99397 10.7514 5.78479 7.14349 6.06253C3.53587 6.3427 0.944775 10.0039 1.35526 14.2421C1.76629 18.4795 5.02381 21.6886 8.63132 21.4101Z" fill="#9B9C9D"/>
<path d="M36.7297 21.2664C39.8963 22.9283 44.4463 21.2593 46.8935 17.5405C49.3406 13.8192 48.7573 9.45863 45.5903 7.79691C42.4237 6.13666 37.8728 7.80638 35.426 11.5252C32.9791 15.2458 33.5632 19.6063 36.7297 21.2664Z" fill="#9B9C9D"/>
<path d="M53.6897 25.6751C51.6366 23.0119 46.7914 22.806 42.8666 25.2167C38.9409 27.6289 37.4239 31.7423 39.4764 34.4062C41.5289 37.0693 46.3746 37.2754 50.2995 34.8638C54.2239 32.4524 55.7418 28.339 53.6897 25.6751Z" fill="#9B9C9D"/>
<path d="M32.608 26.1777C32.2164 23.7585 30.5554 21.5521 27.9006 20.4332C25.2463 19.315 22.2825 19.5731 19.9427 20.8403C17.3564 22.2417 15.702 24.0723 13.4745 24.8725C11.2473 25.6726 5.00883 23.2896 1.12471 29.5872C-1.61853 34.0352 0.899722 39.6583 6.04243 41.825C9.95127 43.4719 13.0449 43.288 15.3161 44.2443C17.587 45.2007 19.3947 47.4504 23.3032 49.0971C28.4458 51.2639 34.9079 49.4254 37.0096 44.7067C39.9852 38.0264 33.9583 35.2417 33.2337 33.1979C32.5098 31.1545 33.041 28.8503 32.608 26.1777Z" fill="#9B9C9D"/>
</svg>
