<svg width="56" height="50" viewBox="0 0 56 50" fill="none" xmlns="http://www.w3.org/2000/svg">
<g clip-path="url(#clip0_68_74)">
<path d="M22.4342 14.9491C25.8832 16.0766 30.0245 13.7063 31.6851 9.65521C33.3448 5.60404 31.8946 1.40697 28.4461 0.280116C24.9963 -0.84586 20.8555 1.52377 19.195 5.57484C17.5352 9.62601 18.9854 13.8231 22.4342 14.9491Z" fill="#FC532E"/>
<path d="M9.32908 21.4101C12.937 21.1308 15.5282 17.4702 15.1182 13.2314C14.7073 8.99397 11.4492 5.78479 7.84125 6.06253C4.23362 6.3427 1.64253 10.0039 2.05301 14.2421C2.46404 18.4795 5.72156 21.6886 9.32908 21.4101Z" fill="#FC532E"/>
<path d="M37.4274 21.2664C40.5941 22.9283 45.1441 21.2593 47.5912 17.5405C50.0384 13.8192 49.4551 9.45863 46.288 7.79691C43.1215 6.13666 38.5705 7.80638 36.1238 11.5252C33.6769 15.2458 34.2609 19.6063 37.4274 21.2664Z" fill="#FC532E"/>
<path d="M54.3875 25.6751C52.3344 23.0119 47.4892 22.806 43.5644 25.2167C39.6387 27.6289 38.1216 31.7423 40.1742 34.4062C42.2267 37.0693 47.0723 37.2754 50.9973 34.8638C54.9216 32.4524 56.4396 28.339 54.3875 25.6751Z" fill="#FC532E"/>
<path d="M33.3057 26.1777C32.9142 23.7585 31.2532 21.5521 28.5983 20.4332C25.944 19.315 22.9803 19.5731 20.6404 20.8403C18.0541 22.2417 16.3997 24.0723 14.1722 24.8725C11.945 25.6726 5.70659 23.2896 1.82246 29.5872C-0.920775 34.0352 1.59748 39.6583 6.74018 41.825C10.649 43.4719 13.7427 43.288 16.0139 44.2443C18.2847 45.2007 20.0925 47.4504 24.001 49.0971C29.1436 51.2639 35.6057 49.4254 37.7073 44.7067C40.683 38.0264 34.6561 35.2417 33.9315 33.1979C33.2075 31.1545 33.7387 28.8503 33.3057 26.1777Z" fill="#FC532E"/>
</g>
<defs>
<clipPath id="clip0_68_74">
<rect width="56" height="50" fill="white"/>
</clipPath>
</defs>
</svg>
